<svg width="158" height="155" viewBox="0 0 158 155" fill="none" xmlns="http://www.w3.org/2000/svg">
<g clip-path="url(#clip0_1_733)">
<path d="M2.7478 70.2384C4.49094 68.7348 5.84047 67.1636 6.84699 65.3063C8.48048 62.2625 9.13696 59.0299 8.75882 55.5901C8.75385 55.4486 8.74165 55.3075 8.72227 55.1673C8.62667 54.7333 8.73913 54.6037 9.21709 54.6643C14.4609 55.3982 19.7556 55.7031 25.0487 55.576C39.3874 55.2279 52.7787 51.464 65.266 44.3801C69.1178 42.1959 72.8121 39.7553 76.6526 37.5541C85.1617 32.6714 94.2148 29.0991 103.594 26.3019C111.898 23.8317 120.351 22.0167 128.907 20.6385C136.328 19.4435 143.785 18.551 151.277 17.9611C153.354 17.7962 155.433 17.6539 157.509 17.4777C157.881 17.4467 158.038 17.5327 157.998 17.916C157.99 18.0803 157.99 18.2449 157.998 18.4092V113.307C157.998 120.019 152.797 126.065 146.19 127.06C145.001 127.239 143.813 127.232 142.619 127.232C131.515 127.227 120.409 127.227 109.303 127.232C108.433 127.232 108.438 127.232 108.563 126.397C111.757 105.124 98.4503 84.8106 76.6962 80.4478C55.437 76.1837 34.8932 89.5017 30.004 110.641C28.8008 115.799 28.6302 121.145 29.5022 126.37C29.6427 127.227 29.6427 127.228 28.7993 127.228C25.895 127.228 22.9893 127.228 20.0836 127.228C19.6787 127.228 19.4482 127.184 19.4271 126.676C19.146 120.165 16.8321 114.399 13.0126 109.181C10.3699 105.56 7.38171 102.205 4.0903 99.1644C1.4053 96.6856 -0.194447 93.7433 0.0178218 89.9836C0.116225 88.2574 0.560444 86.6115 1.17757 85.005C1.28581 84.7232 1.45872 84.6401 1.75112 84.6119C5.94309 84.2032 10.1351 83.7847 14.327 83.3563C17.4 83.0435 20.4786 82.7349 23.4054 81.6512C28.5912 79.7291 31.7668 75.9145 33.5353 70.7837C33.7546 70.151 33.2935 70.3201 33.0151 70.3187C27.8148 70.2962 22.6135 70.2788 17.4112 70.2666C12.7498 70.2553 8.08827 70.2459 3.42678 70.2384H2.7478ZM70.4279 55.607L70.5151 55.7719H136.709C137.483 55.7719 138.256 55.7535 139.029 55.7803C139.435 55.7944 139.6 55.7056 139.591 55.2462C139.576 48.4118 139.576 41.5778 139.591 34.7443C139.591 34.3469 139.463 34.2172 139.077 34.1961C137.811 34.1284 136.556 34.0002 135.292 33.9453C127.561 33.6127 119.894 34.1129 112.305 35.6475C98.1073 38.5166 85.246 44.3844 73.6612 53.0775C72.5689 53.9005 71.5019 54.7629 70.4279 55.607Z" fill="#FE731D"/>
<path d="M100.964 134.074C99.4104 131.901 97.6852 129.857 95.805 127.961C94.0219 126.161 92.0896 124.515 90.0288 123.043C89.652 122.775 89.5452 122.504 89.586 122.056C90.5166 111.606 82.7428 101.822 72.3809 100.396C61.2965 98.8699 51.3297 106.145 49.3898 117.179C47.4737 128.068 54.965 138.696 65.8934 140.594C69.3431 141.218 72.8962 140.916 76.1919 139.719C76.6249 139.562 76.9243 139.632 77.2814 139.884C80.9662 142.465 83.9397 145.939 85.9254 149.982C86.163 150.461 86.1123 150.667 85.6274 150.925C79.5011 154.178 72.9868 155.51 66.0944 154.825C51.684 153.393 39.9234 143.331 36.1799 129.307C31.1613 110.47 43.0793 90.9476 62.0852 86.8666C80.5456 82.904 98.5856 94.3563 102.852 112.795C104.465 119.776 103.902 126.633 101.286 133.311C101.198 133.531 101.103 133.741 100.964 134.074Z" fill="#541790"/>
<path d="M96.6696 154.945C94.5385 154.945 92.4073 154.928 90.2762 154.956C89.7856 154.956 89.6661 154.825 89.6478 154.339C89.2655 144.413 82.1355 136.39 72.3233 134.836C71.4923 134.686 70.6481 134.623 69.8042 134.647C69.3951 134.668 69.3023 134.506 69.3037 134.121C69.315 129.778 69.3206 125.434 69.3037 121.091C69.3037 120.581 69.4977 120.537 69.9152 120.544C76.3916 120.648 82.3955 122.396 87.8189 125.934C96.3941 131.531 101.539 139.445 103.302 149.552C103.573 151.102 103.658 152.675 103.738 154.246C103.764 154.771 103.658 154.971 103.07 154.96C100.933 154.921 98.8021 154.945 96.6696 154.945Z" fill="#541690"/>
<path d="M125.091 137.594C125.091 135.927 125.104 134.26 125.081 132.593C125.081 132.17 125.189 131.994 125.631 132.029C126.417 132.101 127.447 131.699 127.922 132.198C128.303 132.598 128.04 133.625 128.042 134.374C128.042 136.91 128.042 139.447 128.042 141.983C128.042 142.889 128.254 143.099 129.149 143.103C129.805 143.103 130.461 143.103 131.117 143.103C131.95 143.103 132.159 142.895 132.16 142.072C132.16 138.972 132.176 135.872 132.148 132.771C132.148 132.208 132.266 131.967 132.872 132.023C133.456 132.061 134.043 132.061 134.628 132.023C134.979 132.011 135.124 132.109 135.122 132.492C135.108 135.874 135.145 139.256 135.096 142.638C135.069 144.496 133.435 146.02 131.556 146.054C130.596 146.075 129.634 146.073 128.674 146.054C127.751 146.035 126.87 145.667 126.207 145.024C125.544 144.38 125.148 143.509 125.099 142.585C125.099 142.514 125.088 142.444 125.088 142.374L125.091 137.594Z" fill="#551891"/>
<path d="M117.54 146.067C117.074 146.054 116.597 146.095 116.134 146.02C114.348 145.727 113.074 144.236 113.049 142.371C113.019 140.141 113.011 137.911 113.049 135.683C113.087 133.569 114.692 132.027 116.787 132.001C117.63 131.99 118.474 131.99 119.317 132.001C121.448 132.03 123.044 133.603 123.07 135.743C123.099 137.926 123.11 140.112 123.07 142.29C123.037 143.891 122.227 145.021 120.754 145.66L120.014 142.813C120.088 142.617 120.138 142.413 120.163 142.206C120.175 140.092 120.172 137.978 120.163 135.873C120.163 135.309 119.882 134.978 119.32 134.964C118.476 134.944 117.633 134.942 116.79 134.964C116.268 134.98 115.973 135.28 115.973 135.821C115.973 137.978 115.956 140.136 115.983 142.295C115.983 142.82 116.264 143.192 116.888 143.03L117.54 146.067Z" fill="#551890"/>
<path d="M26.1573 137.938C26.1573 136.294 26.1714 134.651 26.1475 133.005C26.1475 132.573 26.2585 132.416 26.6957 132.454C27.4829 132.522 28.5119 132.129 28.9899 132.614C29.3709 132.998 29.1052 134.037 29.1066 134.785C29.1122 137.25 29.1122 139.715 29.1066 142.179C29.1066 143.399 29.2359 143.526 30.4856 143.526C31.6805 143.526 32.8754 143.549 34.0675 143.516C34.5553 143.502 34.8055 143.576 34.738 144.148C34.6481 144.907 35.0586 145.935 34.5792 146.367C34.1575 146.745 33.158 146.478 32.4115 146.484C31.5681 146.491 30.7246 146.491 29.8812 146.484C29.3939 146.489 28.9105 146.397 28.4589 146.214C28.0072 146.031 27.5963 145.76 27.2498 145.416C26.9033 145.073 26.6281 144.664 26.4401 144.213C26.2521 143.763 26.155 143.279 26.1545 142.791C26.1461 141.177 26.1573 139.558 26.1573 137.938Z" fill="#541690"/>
<path d="M14.0924 140.144C14.0924 138.735 14.039 137.333 14.0825 135.93C14.1346 134.199 15.5375 132.717 17.2469 132.528C18.3863 132.407 19.5349 132.4 20.6755 132.508C22.6633 132.689 23.9678 134.034 24.1126 136.017C24.125 136.507 24.1128 136.997 24.0761 137.485C23.1047 137.726 22.1572 138.069 21.1605 138.21C21.1605 137.58 21.1605 136.95 21.1605 136.319C21.1605 135.745 20.8597 135.451 20.3016 135.442C19.4863 135.429 18.6709 135.424 17.8556 135.442C17.2933 135.458 17.0121 135.775 17.022 136.344C17.0332 137.349 17.0346 138.352 17.0403 139.355L14.0924 140.144Z" fill="#561990"/>
<path d="M3.06543 80.7212C3.18211 77.8395 3.31003 74.9577 3.40843 72.076C3.42671 71.5278 3.78096 71.6391 4.0832 71.6321C7.59759 71.5476 11.112 71.4588 14.6264 71.3925C19.2865 71.3052 23.9479 71.1939 28.6094 71.2657C29.0466 71.2657 29.4965 71.222 30.0602 71.4517C28.3592 71.7462 26.7735 71.8378 25.1934 71.9393C19.233 72.3226 13.2722 72.6871 7.31081 73.0328C6.86238 73.0596 6.66557 73.2414 6.49266 73.6219C5.40742 76.0062 4.30109 78.3792 3.20179 80.7565L3.06543 80.7212Z" fill="#591D93"/>
<path d="M151.043 139.092C151.043 141.227 151.029 143.363 151.054 145.496C151.054 145.967 150.913 146.102 150.462 146.077C149.831 146.045 149.198 146.045 148.567 146.077C148.195 146.092 148.093 145.959 148.095 145.596C148.104 141.256 148.104 136.915 148.095 132.574C148.095 132.184 148.207 132.03 148.611 132.047C149.242 132.074 149.876 132.08 150.506 132.047C150.953 132.023 151.054 132.206 151.051 132.619C151.034 134.775 151.043 136.933 151.043 139.092Z" fill="#541690"/>
<path d="M21.1601 138.209C22.1568 138.068 23.1043 137.726 24.0757 137.485C24.1614 138.492 24.1614 139.504 24.0757 140.511L21.1236 141.356C19.7389 141.725 18.3275 141.999 16.9949 142.545L14.085 143.359C14.085 142.289 14.085 141.219 14.085 140.147L17.037 139.361C18.4231 139.013 19.8204 138.714 21.1601 138.209Z" fill="#FD731F"/>
<path d="M137.244 143.102C137.323 142.529 137.618 142.061 137.957 141.61C139.597 139.433 141.237 137.253 142.877 135.07L146.186 134.957C146.178 135.551 145.877 136.017 145.537 136.471C143.886 138.673 142.237 140.878 140.59 143.085L137.244 143.102Z" fill="#FD731F"/>
<path d="M146.179 134.957L142.87 135.07C141.239 134.939 139.605 135.026 137.973 135.026C137.457 135.026 137.27 134.906 137.308 134.367C137.343 133.759 137.343 133.15 137.308 132.542C137.299 132.204 137.366 132.03 137.763 132.034C139.655 132.051 141.545 132.035 143.438 132.049C143.718 132.052 143.997 132.087 144.27 132.153C145.652 132.47 146.324 133.469 146.179 134.957Z" fill="#541790"/>
<path d="M137.243 143.102L140.582 143.085C142.197 143.094 143.815 143.129 145.429 143.094C145.979 143.081 146.105 143.255 146.067 143.762C146.033 144.372 146.033 144.984 146.067 145.594C146.083 145.952 145.99 146.081 145.606 146.079C143.662 146.057 141.716 146.101 139.774 146.055C138.001 146.012 137.016 144.819 137.243 143.102Z" fill="#541690"/>
<path d="M120.017 142.813L120.756 145.66C120.42 146.133 120.804 146.549 120.873 146.986C120.927 147.328 120.92 147.509 120.492 147.486C119.862 147.444 119.23 147.444 118.6 147.486C118.058 147.53 117.767 147.385 117.731 146.805C117.692 146.553 117.628 146.304 117.541 146.064C117.326 145.052 117.111 144.041 116.894 143.03C116.785 142.629 116.685 142.223 116.563 141.825C116.449 141.456 116.563 141.279 116.945 141.191C117.579 141.057 118.204 140.884 118.817 140.674C119.25 140.518 119.38 140.653 119.475 141.052C119.63 141.648 119.63 142.292 120.017 142.813Z" fill="#FD731F"/>
<path d="M21.1319 141.353L24.084 140.508C24.098 142.378 24.1093 144.248 24.1289 146.119C24.1289 146.383 24.046 146.519 23.7663 146.488C23.7199 146.488 23.6735 146.488 23.6257 146.488C22.8328 146.477 21.7982 146.77 21.3174 146.369C20.8367 145.967 21.1909 144.876 21.1656 144.087C21.1361 143.178 21.1417 142.266 21.1319 141.353Z" fill="#541690"/>
<path d="M26.6228 75.8131C25.0075 77.645 23.0198 78.9358 20.8043 79.8912C17.5711 81.2863 14.217 81.9782 10.6829 81.6837C10.5901 81.6752 10.5001 81.6555 10.3174 81.6273C10.9415 81.3046 11.5544 81.3046 12.135 81.1947C17.0299 80.2632 21.5873 78.4341 25.9382 76.0414C26.1392 75.9314 26.3149 75.7595 26.5651 75.7595C26.5918 75.7736 26.6073 75.7948 26.6228 75.8131Z" fill="#5B1F94"/>
<path d="M14.0934 143.356L17.0034 142.543C17.0034 143.71 17.0034 144.878 17.0301 146.043C17.0399 146.435 16.8895 146.508 16.5437 146.497C15.8689 146.474 15.1927 146.469 14.518 146.497C14.1314 146.515 14.0513 146.364 14.0625 146.014C14.0906 145.13 14.085 144.242 14.0934 143.356Z" fill="#541690"/>
<path d="M26.5752 75.7524C26.6286 75.6115 26.7593 75.6411 26.8676 75.6256L26.8788 75.6157L26.623 75.813C26.6075 75.7947 26.5921 75.7736 26.5752 75.7524Z" fill="#5B1F94"/>
<path d="M26.8682 75.6258L26.8781 75.5974C26.8774 75.604 26.8774 75.6107 26.8781 75.6173L26.8682 75.6258Z" fill="#5B1F94"/>
<path d="M101.917 42.8271C106.463 40.7302 111.208 39.2605 116.115 38.2797C121.912 37.133 127.834 36.7587 133.728 37.1664C135.574 37.2876 135.575 37.2749 135.575 39.1477V53.2521L135.545 53.2929C135.545 53.276 135.564 53.2549 135.558 53.2408C135.198 52.2149 135.159 51.1271 134.996 50.0716C134.486 46.877 134.012 43.6754 133.551 40.4723C133.493 40.0806 133.34 39.9087 132.948 39.8551C122.512 38.4321 111.888 39.5144 101.951 43.0131C101.935 42.9511 101.93 42.8891 101.917 42.8271Z" fill="#571A92"/>
<path d="M101.917 42.8271C101.924 42.8892 101.929 42.9512 101.936 43.0132L100.671 43.4909L100.632 43.388L101.917 42.8271Z" fill="#5B1F94"/>
</g>
<defs>
<clipPath id="clip0_1_733">
<rect width="158" height="155" fill="white"/>
</clipPath>
</defs>
</svg>
